STARTFONT 2.1
COMMENT Created by fdbbdf
FONT Symbol22
SIZE 22 78 78
FONTBOUNDINGBOX 27 32 -1 -8
STARTPROPERTIES 4
Ownership "  Copyright (c) 1984 Adobe Systems, Inc.  /adobe/fonts/Times/Greek/fontvec.ps TG24.bits  TOTAL BITMAP BYTES 5722  GUIDELINES 0 0 0 0 17 13 -5 DONE  "
FONT_ASCENT 24
FONT_DESCENT 8
DEFAULT_CHAR 32
ENDPROPERTIES
CHARS 95
STARTCHAR similar
ENCODING -1 126
SWIDTH 0 0
DWIDTH 13 0
BBX 11 4 1 4
BITMAP
3820
7c60
c7c0
8380
ENDCHAR
STARTCHAR braceright
ENCODING -1 125
SWIDTH 0 0
DWIDTH 10 0
BBX 8 22 1 -6
BITMAP
e000
3000
1800
1800
1800
1800
1800
0800
0c00
0400
0300
0400
0c00
0800
1800
1800
1800
1800
1800
1800
3000
e000
ENDCHAR
STARTCHAR bar
ENCODING -1 124
SWIDTH 0 0
DWIDTH 4 0
BBX 2 22 1 -6
BITMAP
c000
c000
c000
c000
c000
c000
c000
c000
c000
c000
c000
c000
c000
c000
c000
c000
c000
c000
c000
c000
c000
c000
ENDCHAR
STARTCHAR braceleft
ENCODING -1 123
SWIDTH 0 0
DWIDTH 10 0
BBX 8 22 1 -6
BITMAP
0700
0c00
1800
1800
1800
1800
1800
1000
3000
2000
c000
2000
3000
1000
1800
1800
1800
1800
1800
1800
0c00
0700
ENDCHAR
STARTCHAR zeta
ENCODING -1 122
SWIDTH 0 0
DWIDTH 12 0
BBX 10 24 1 -6
BITMAP
3000
6380
6780
3f00
1800
3000
2000
6000
4000
c000
8000
8000
8000
8000
c000
f000
7c00
3f80
0fc0
00c0
0040
00c0
0f80
0f00
ENDCHAR
STARTCHAR psi
ENCODING -1 121
SWIDTH 0 0
DWIDTH 18 0
BBX 16 18 1 -6
BITMAP
c183
718e
318c
399c
399c
399c
399c
399c
399c
1998
1998
0db0
07e0
0180
0180
0180
0180
0180
ENDCHAR
STARTCHAR xi
ENCODING -1 120
SWIDTH 0 0
DWIDTH 12 0
BBX 10 24 1 -6
BITMAP
3000
6380
6780
3f00
3000
2000
3780
1f80
3000
6000
c000
8000
8000
8000
c000
f000
7c00
3f80
0fc0
00c0
0040
00c0
0f80
0f00
ENDCHAR
STARTCHAR omega
ENCODING -1 119
SWIDTH 0 0
DWIDTH 16 0
BBX 14 13 1 -1
BITMAP
1860
3030
6018
6318
c30c
c30c
c30c
c30c
c30c
c30c
6318
77b8
3cf0
ENDCHAR
STARTCHAR omega1
ENCODING -1 118
SWIDTH 0 0
DWIDTH 18 0
BBX 16 14 1 -1
BITMAP
7fff
ffff
9818
300c
318c
6186
6186
6186
6186
6186
6186
318c
3bdc
1e78
ENDCHAR
STARTCHAR upsilon
ENCODING -1 117
SWIDTH 0 0
DWIDTH 14 0
BBX 13 13 0 -1
BITMAP
30e0
7830
d818
9818
1818
1818
1818
1818
1818
1830
0c30
0ee0
07c0
ENDCHAR
STARTCHAR tau
ENCODING -1 116
SWIDTH 0 0
DWIDTH 11 0
BBX 10 13 0 -1
BITMAP
3fc0
7fc0
cc00
8c00
0c00
0c00
0c00
0c00
0c00
0c00
0c80
0f80
0700
ENDCHAR
STARTCHAR sigma
ENCODING -1 115
SWIDTH 0 0
DWIDTH 15 0
BBX 14 13 1 -1
BITMAP
1ffc
71fc
60c0
e0e0
c060
c060
c060
c060
c060
e0e0
60c0
71c0
1f00
ENDCHAR
STARTCHAR rho
ENCODING -1 114
SWIDTH 0 0
DWIDTH 12 0
BBX 10 18 1 -6
BITMAP
3e00
6380
c180
c1c0
c0c0
c0c0
c0c0
c0c0
c0c0
c1c0
c180
e380
de00
c000
c000
c000
c000
c000
ENDCHAR
STARTCHAR theta
ENCODING -1 113
SWIDTH 0 0
DWIDTH 12 0
BBX 10 17 1 -1
BITMAP
1e00
3300
6180
6180
c0c0
c0c0
c0c0
c0c0
ffc0
c0c0
c0c0
c0c0
c0c0
6180
6180
3300
1e00
ENDCHAR
STARTCHAR pi
ENCODING -1 112
SWIDTH 0 0
DWIDTH 14 0
BBX 13 13 0 -1
BITMAP
7ff8
fff8
98c0
18c0
18c0
18c0
18c0
18c0
18c0
18c0
18c8
38f8
30f0
ENDCHAR
STARTCHAR omicron
ENCODING -1 111
SWIDTH 0 0
DWIDTH 13 0
BBX 11 13 1 -1
BITMAP
1f00
71c0
60c0
e0e0
c060
c060
c060
c060
c060
e0e0
60c0
71c0
1f00
ENDCHAR
STARTCHAR nu
ENCODING -1 110
SWIDTH 0 0
DWIDTH 13 0
BBX 11 13 1 -1
BITMAP
c0e0
c0e0
c060
6040
60c0
6080
3180
3100
3300
1a00
1a00
0e00
0c00
ENDCHAR
STARTCHAR mu
ENCODING -1 109
SWIDTH 0 0
DWIDTH 14 0
BBX 13 18 1 -6
BITMAP
60c0
60c0
60c0
60c0
60c0
60c0
60c0
60c0
60c0
60c0
71c8
3ff8
6f30
6000
6000
6000
6000
c000
ENDCHAR
STARTCHAR lambda
ENCODING -1 108
SWIDTH 0 0
DWIDTH 14 0
BBX 12 19 1 -1
BITMAP
7000
f800
8800
0800
0800
0c00
0c00
0c00
1c00
1e00
1a00
3200
3200
3300
6100
6100
6190
c1f0
c0e0
ENDCHAR
STARTCHAR kappa
ENCODING -1 107
SWIDTH 0 0
DWIDTH 14 0
BBX 12 13 1 -1
BITMAP
3070
70f0
f1b0
3300
3600
3c00
3c00
3e00
3700
3380
31c0
30e0
31f0
ENDCHAR
STARTCHAR phi1
ENCODING -1 106
SWIDTH 0 0
DWIDTH 14 0
BBX 12 18 1 -6
BITMAP
3380
73c0
6660
c670
c630
c630
c630
c630
c630
e670
6660
36c0
1f80
0600
0600
0600
0600
0600
ENDCHAR
STARTCHAR iota
ENCODING -1 105
SWIDTH 0 0
DWIDTH 8 0
BBX 7 13 1 -1
BITMAP
3000
7000
f000
3000
3000
3000
3000
3000
3000
3000
3200
3e00
1c00
ENDCHAR
STARTCHAR eta
ENCODING -1 104
SWIDTH 0 0
DWIDTH 15 0
BBX 12 18 1 -6
BITMAP
71c0
fbe0
9e30
1c30
1830
1830
1830
1830
1830
1830
1830
1830
1830
0030
0030
0030
0030
0030
ENDCHAR
STARTCHAR gamma
ENCODING -1 103
SWIDTH 0 0
DWIDTH 11 0
BBX 11 18 0 -6
BITMAP
7060
f860
9860
98c0
18c0
0cc0
0d80
0d80
0580
0700
0700
0300
0600
0600
0600
0600
0600
0600
ENDCHAR
STARTCHAR phi
ENCODING -1 102
SWIDTH 0 0
DWIDTH 14 0
BBX 12 22 1 -6
BITMAP
0600
0600
0600
0600
1f80
36c0
6660
e670
c630
c630
c630
c630
c630
e670
6660
36c0
1f80
0600
0600
0600
0600
0600
ENDCHAR
STARTCHAR epsilon
ENCODING -1 101
SWIDTH 0 0
DWIDTH 11 0
BBX 9 13 1 -1
BITMAP
3e00
7300
e300
c300
e000
6000
3c00
6000
e000
c000
e080
7180
3f00
ENDCHAR
STARTCHAR delta
ENCODING -1 100
SWIDTH 0 0
DWIDTH 12 0
BBX 10 18 1 -1
BITMAP
1f00
3380
2180
3000
3800
1c00
0e00
3f00
7380
6180
c0c0
c0c0
c0c0
c0c0
c0c0
6180
7380
1e00
ENDCHAR
STARTCHAR chi
ENCODING -1 99
SWIDTH 0 0
DWIDTH 14 0
BBX 12 18 1 -6
BITMAP
7060
f860
d8c0
88c0
0980
0980
0b00
0700
0600
0600
0e00
0e00
1900
1900
3110
31b0
61f0
60e0
ENDCHAR
STARTCHAR beta
ENCODING -1 98
SWIDTH 0 0
DWIDTH 12 0
BBX 10 24 1 -6
BITMAP
3e00
6700
c380
c180
c180
c380
c300
ce00
cf00
c380
c180
c1c0
c0c0
c0c0
c0c0
c1c0
e180
f380
df00
c000
c000
c000
c000
c000
ENDCHAR
STARTCHAR alpha
ENCODING -1 97
SWIDTH 0 0
DWIDTH 16 0
BBX 14 13 1 -1
BITMAP
1f18
71b8
60b0
e0f0
c060
c060
c060
c060
c060
e0e0
60e4
71fc
1f38
ENDCHAR
STARTCHAR radicalex
ENCODING -1 96
SWIDTH 0 0
DWIDTH 13 0
BBX 13 1 13 21
BITMAP
fff8
ENDCHAR
STARTCHAR underscore
ENCODING -1 95
SWIDTH 0 0
DWIDTH 13 0
BBX 13 2 0 -6
BITMAP
fff8
fff8
ENDCHAR
STARTCHAR perpendicular
ENCODING -1 94
SWIDTH 0 0
DWIDTH 16 0
BBX 14 17 1 -1
BITMAP
0300
0300
0300
0300
0300
0300
0300
0300
0300
0300
0300
0300
0300
0300
0300
fffc
fffc
ENDCHAR
STARTCHAR bracketright
ENCODING -1 93
SWIDTH 0 0
DWIDTH 8 0
BBX 5 22 1 -6
BITMAP
f800
1800
1800
1800
1800
1800
1800
1800
1800
1800
1800
1800
1800
1800
1800
1800
1800
1800
1800
1800
1800
f800
ENDCHAR
STARTCHAR therefore
ENCODING -1 92
SWIDTH 0 0
DWIDTH 18 0
BBX 12 10 3 -1
BITMAP
0600
0600
0000
0000
0000
0000
0000
0000
c030
c030
ENDCHAR
STARTCHAR bracketleft
ENCODING -1 91
SWIDTH 0 0
DWIDTH 8 0
BBX 5 22 2 -6
BITMAP
f800
c000
c000
c000
c000
c000
c000
c000
c000
c000
c000
c000
c000
c000
c000
c000
c000
c000
c000
c000
c000
f800
ENDCHAR
STARTCHAR Zeta
ENCODING -1 90
SWIDTH 0 0
DWIDTH 15 0
BBX 12 17 1 -1
BITMAP
fff0
c070
8060
00e0
01c0
0180
0380
0700
0600
0e00
1c00
3800
3800
7000
6010
e030
fff0
ENDCHAR
STARTCHAR Psi
ENCODING -1 89
SWIDTH 0 0
DWIDTH 20 0
BBX 18 17 1 -1
BITMAP
e3f1c000
70c38000
30c30000
30c30000
38c70000
38c70000
18c60000
1cce0000
07f80000
00c00000
00c00000
00c00000
00c00000
00c00000
00c00000
00c00000
03f00000
ENDCHAR
STARTCHAR Xi
ENCODING -1 88
SWIDTH 0 0
DWIDTH 16 0
BBX 14 17 1 -1
BITMAP
7ff8
7ff8
4008
4008
0000
1020
1020
1fe0
1fe0
1020
1020
0000
0000
8004
8004
fffc
fffc
ENDCHAR
STARTCHAR Omega
ENCODING -1 87
SWIDTH 0 0
DWIDTH 18 0
BBX 16 17 1 -1
BITMAP
07e0
1e78
381c
700e
6006
c003
c003
c003
c003
c003
6006
300c
1818
8c31
c423
fc3f
fc3f
ENDCHAR
STARTCHAR sigma1
ENCODING -1 86
SWIDTH 0 0
DWIDTH 11 0
BBX 9 18 1 -6
BITMAP
1f80
3f80
6000
6000
c000
c000
c000
c000
c000
c000
6000
7f00
1f80
0080
0080
0180
0f00
0e00
ENDCHAR
STARTCHAR Upsilon
ENCODING -1 85
SWIDTH 0 0
DWIDTH 16 0
BBX 16 17 0 -1
BITMAP
f81f
700e
300c
1818
1c10
0c30
0e60
0660
03c0
03c0
0180
0180
0180
0180
0180
0180
07e0
ENDCHAR
STARTCHAR Tau
ENCODING -1 84
SWIDTH 0 0
DWIDTH 16 0
BBX 14 17 1 -1
BITMAP
fffc
c30c
8304
0300
0300
0300
0300
0300
0300
0300
0300
0300
0300
0300
0300
0300
0fc0
ENDCHAR
STARTCHAR Sigma
ENCODING -1 83
SWIDTH 0 0
DWIDTH 14 0
BBX 12 17 1 -1
BITMAP
fff0
e010
7010
3800
1c00
0e00
0700
0380
0300
0600
0c00
1800
3000
6010
c010
fff0
fff0
ENDCHAR
STARTCHAR Rho
ENCODING -1 82
SWIDTH 0 0
DWIDTH 14 0
BBX 12 17 1 -1
BITMAP
ff80
30e0
3060
3030
3030
3030
3060
30e0
3f80
3000
3000
3000
3000
3000
3000
3000
fc00
ENDCHAR
STARTCHAR Theta
ENCODING -1 81
SWIDTH 0 0
DWIDTH 18 0
BBX 16 17 1 -1
BITMAP
07e0
1e78
381c
700e
6006
c813
c813
cff3
cff3
c813
c813
c003
6006
700e
381c
1c38
07e0
ENDCHAR
STARTCHAR Pi
ENCODING -1 80
SWIDTH 0 0
DWIDTH 18 0
BBX 16 17 1 -1
BITMAP
ffff
300c
300c
300c
300c
300c
300c
300c
300c
300c
300c
300c
300c
300c
300c
300c
fc3f
ENDCHAR
STARTCHAR Omicron
ENCODING -1 79
SWIDTH 0 0
DWIDTH 18 0
BBX 16 17 1 -1
BITMAP
07e0
1e78
381c
700e
6006
c003
c003
c003
c003
c003
c003
c003
6006
700e
381c
1c38
07e0
ENDCHAR
STARTCHAR Nu
ENCODING -1 78
SWIDTH 0 0
DWIDTH 18 0
BBX 16 17 1 -1
BITMAP
f01f
3804
3804
2c04
2e04
2604
2304
2304
2184
21c4
20c4
2064
2064
2034
203c
201c
f80c
ENDCHAR
STARTCHAR Mu
ENCODING -1 77
SWIDTH 0 0
DWIDTH 22 0
BBX 20 17 1 -1
BITMAP
f001f000
3801c000
3803c000
3c02c000
2c02c000
2e06c000
2604c000
270cc000
2308c000
2388c000
2198c000
21d0c000
20d0c000
20f0c000
2060c000
2060c000
f843f000
ENDCHAR
STARTCHAR Lambda
ENCODING -1 76
SWIDTH 0 0
DWIDTH 17 0
BBX 15 17 1 -1
BITMAP
0300
0300
0380
0580
04c0
04c0
0cc0
0860
0860
1860
1030
1030
3030
2018
2018
601c
f83e
ENDCHAR
STARTCHAR Kappa
ENCODING -1 75
SWIDTH 0 0
DWIDTH 17 0
BBX 15 17 1 -1
BITMAP
fc7c
3030
3060
30c0
3180
3300
3600
3e00
3f00
3380
3180
31c0
30e0
3070
3038
301c
fc3e
ENDCHAR
STARTCHAR theta1
ENCODING -1 74
SWIDTH 0 0
DWIDTH 16 0
BBX 14 17 1 -1
BITMAP
03c0
06e0
0460
0660
0330
71b0
f8f0
983c
1830
1830
3030
3030
3030
3060
3860
1cc0
0f80
ENDCHAR
STARTCHAR Iota
ENCODING -1 73
SWIDTH 0 0
DWIDTH 8 0
BBX 6 17 1 -1
BITMAP
fc00
3000
3000
3000
3000
3000
3000
3000
3000
3000
3000
3000
3000
3000
3000
3000
fc00
ENDCHAR
STARTCHAR Eta
ENCODING -1 72
SWIDTH 0 0
DWIDTH 18 0
BBX 16 17 1 -1
BITMAP
fc3f
300c
300c
300c
300c
300c
300c
300c
3ffc
300c
300c
300c
300c
300c
300c
300c
fc3f
ENDCHAR
STARTCHAR Gamma
ENCODING -1 71
SWIDTH 0 0
DWIDTH 15 0
BBX 13 17 1 -1
BITMAP
fff8
3018
3008
3000
3000
3000
3000
3000
3000
3000
3000
3000
3000
3000
3000
3000
fc00
ENDCHAR
STARTCHAR Phi
ENCODING -1 70
SWIDTH 0 0
DWIDTH 19 0
BBX 16 17 1 -1
BITMAP
07e0
0180
0180
0ff0
399c
6186
e187
c183
c183
c183
e187
6186
399c
0ff0
0180
0180
07e0
ENDCHAR
STARTCHAR Epsilon
ENCODING -1 69
SWIDTH 0 0
DWIDTH 15 0
BBX 13 17 1 -1
BITMAP
fff0
3030
3010
3000
3000
3000
3020
3020
3fe0
3020
3020
3000
3000
3000
3008
3018
fff8
ENDCHAR
STARTCHAR Delta
ENCODING -1 68
SWIDTH 0 0
DWIDTH 15 0
BBX 15 17 0 -1
BITMAP
0300
0300
0380
0580
04c0
0cc0
0860
0860
1830
1030
3018
2018
200c
600c
4006
c006
fffe
ENDCHAR
STARTCHAR Chi
ENCODING -1 67
SWIDTH 0 0
DWIDTH 18 0
BBX 16 17 1 -1
BITMAP
f81f
700e
380c
1c18
0c30
0e60
07c0
0380
0380
07c0
0660
0c70
1830
1818
301c
700e
f81f
ENDCHAR
STARTCHAR Beta
ENCODING -1 66
SWIDTH 0 0
DWIDTH 15 0
BBX 13 17 1 -1
BITMAP
ffc0
30e0
3070
3030
3030
3030
3030
3060
3fc0
3070
3038
3018
3018
3018
3038
3070
ffc0
ENDCHAR
STARTCHAR Alpha
ENCODING -1 65
SWIDTH 0 0
DWIDTH 18 0
BBX 17 17 0 -1
BITMAP
00800000
01c00000
01c00000
01400000
03600000
02600000
02300000
06300000
04300000
0c180000
08180000
0ffc0000
180c0000
100c0000
30060000
30060000
f80f8000
ENDCHAR
STARTCHAR congruent
ENCODING -1 64
SWIDTH 0 0
DWIDTH 13 0
BBX 11 12 1 0
BITMAP
3820
7c60
c7c0
8380
0000
0000
ffe0
ffe0
0000
0000
ffe0
ffe0
ENDCHAR
STARTCHAR question
ENCODING -1 63
SWIDTH 0 0
DWIDTH 11 0
BBX 8 17 2 -1
BITMAP
7c00
c600
8300
c300
c700
0600
0e00
0c00
1c00
1800
1800
1000
1000
0000
0000
3000
3000
ENDCHAR
STARTCHAR greater
ENCODING -1 62
SWIDTH 0 0
DWIDTH 13 0
BBX 12 12 0 0
BITMAP
e000
7800
1e00
0780
01e0
0070
0070
01e0
0780
1e00
7800
e000
ENDCHAR
STARTCHAR equal
ENCODING -1 61
SWIDTH 0 0
DWIDTH 12 0
BBX 10 5 1 3
BITMAP
ffc0
ffc0
0000
ffc0
ffc0
ENDCHAR
STARTCHAR less
ENCODING -1 60
SWIDTH 0 0
DWIDTH 13 0
BBX 12 12 0 0
BITMAP
0070
01e0
0780
1e00
7800
e000
e000
7800
1e00
0780
01e0
0070
ENDCHAR
STARTCHAR semicolon
ENCODING -1 59
SWIDTH 0 0
DWIDTH 6 0
BBX 3 15 1 -5
BITMAP
6000
6000
0000
0000
0000
0000
0000
0000
0000
6000
6000
2000
6000
c000
8000
ENDCHAR
STARTCHAR colon
ENCODING -1 58
SWIDTH 0 0
DWIDTH 6 0
BBX 2 11 2 -1
BITMAP
c000
c000
0000
0000
0000
0000
0000
0000
0000
c000
c000
ENDCHAR
STARTCHAR nine
ENCODING -1 57
SWIDTH 0 0
DWIDTH 12 0
BBX 10 17 1 -1
BITMAP
1e00
7380
6180
c0c0
c0c0
c0c0
c0c0
c0c0
61c0
73c0
1ec0
0180
0380
0700
0e00
3c00
f000
ENDCHAR
STARTCHAR eight
ENCODING -1 56
SWIDTH 0 0
DWIDTH 12 0
BBX 10 17 1 -1
BITMAP
1e00
3300
6180
6180
6180
3300
1e00
1e00
3700
7380
e1c0
c0c0
c0c0
c0c0
e1c0
7380
1e00
ENDCHAR
STARTCHAR seven
ENCODING -1 55
SWIDTH 0 0
DWIDTH 12 0
BBX 10 17 1 -1
BITMAP
7fc0
ffc0
c0c0
8180
0180
0300
0300
0300
0600
0600
0600
0c00
0c00
0c00
1800
1800
1800
ENDCHAR
STARTCHAR six
ENCODING -1 54
SWIDTH 0 0
DWIDTH 12 0
BBX 10 17 1 -1
BITMAP
03c0
0e00
3800
7000
6000
e000
cf00
f380
e180
c0c0
c0c0
c0c0
c0c0
e0c0
61c0
7380
1f00
ENDCHAR
STARTCHAR five
ENCODING -1 53
SWIDTH 0 0
DWIDTH 12 0
BBX 10 17 1 -1
BITMAP
1fc0
3f80
6000
6000
c000
f000
fc00
1e00
0700
0380
0180
0180
0180
0180
c300
fe00
7c00
ENDCHAR
STARTCHAR four
ENCODING -1 52
SWIDTH 0 0
DWIDTH 12 0
BBX 10 17 1 -1
BITMAP
0300
0700
0700
0f00
0b00
1b00
1300
3300
2300
6300
4300
ffc0
ffc0
0300
0300
0300
0300
ENDCHAR
STARTCHAR three
ENCODING -1 51
SWIDTH 0 0
DWIDTH 12 0
BBX 9 17 1 -1
BITMAP
1c00
7e00
4700
8300
8300
0600
0c00
1e00
0700
0300
0180
0180
0180
0300
c700
fe00
7800
ENDCHAR
STARTCHAR two
ENCODING -1 50
SWIDTH 0 0
DWIDTH 12 0
BBX 10 17 1 -1
BITMAP
1c00
7f00
6700
8380
8180
0180
0180
0380
0300
0700
0c00
0c00
1800
3000
6040
ffc0
ff80
ENDCHAR
STARTCHAR one
ENCODING -1 49
SWIDTH 0 0
DWIDTH 12 0
BBX 6 17 3 -1
BITMAP
3000
7000
f000
3000
3000
3000
3000
3000
3000
3000
3000
3000
3000
3000
3000
3000
fc00
ENDCHAR
STARTCHAR zero
ENCODING -1 48
SWIDTH 0 0
DWIDTH 12 0
BBX 10 17 1 -1
BITMAP
1e00
3300
6180
6180
c0c0
c0c0
c0c0
c0c0
c0c0
c0c0
c0c0
c0c0
c0c0
6180
6180
3300
1e00
ENDCHAR
STARTCHAR slash
ENCODING -1 47
SWIDTH 0 0
DWIDTH 7 0
BBX 7 17 0 -1
BITMAP
0600
0600
0600
0c00
0c00
0c00
1800
1800
3000
3000
3000
6000
6000
6000
c000
c000
c000
ENDCHAR
STARTCHAR period
ENCODING -1 46
SWIDTH 0 0
DWIDTH 6 0
BBX 2 2 2 -1
BITMAP
c000
c000
ENDCHAR
STARTCHAR minus
ENCODING -1 45
SWIDTH 0 0
DWIDTH 13 0
BBX 11 2 1 5
BITMAP
ffe0
ffe0
ENDCHAR
STARTCHAR comma
ENCODING -1 44
SWIDTH 0 0
DWIDTH 6 0
BBX 3 6 1 -5
BITMAP
6000
6000
2000
6000
c000
8000
ENDCHAR
STARTCHAR plus
ENCODING -1 43
SWIDTH 0 0
DWIDTH 12 0
BBX 10 10 1 1
BITMAP
0c00
0c00
0c00
0c00
ffc0
ffc0
0c00
0c00
0c00
0c00
ENDCHAR
STARTCHAR asteriskmath
ENCODING -1 42
SWIDTH 0 0
DWIDTH 12 0
BBX 8 10 2 6
BITMAP
1800
1800
c300
e700
1800
1800
e700
c300
1800
1800
ENDCHAR
STARTCHAR parenright
ENCODING -1 41
SWIDTH 0 0
DWIDTH 8 0
BBX 6 22 1 -6
BITMAP
c000
6000
3000
1000
1800
1800
0800
0c00
0c00
0c00
0c00
0c00
0c00
0c00
0c00
0800
1800
1800
1000
3000
6000
c000
ENDCHAR
STARTCHAR parenleft
ENCODING -1 40
SWIDTH 0 0
DWIDTH 8 0
BBX 6 22 1 -6
BITMAP
0c00
1800
3000
2000
6000
6000
4000
c000
c000
c000
c000
c000
c000
c000
c000
4000
6000
6000
2000
3000
1800
0c00
ENDCHAR
STARTCHAR suchthat
ENCODING -1 39
SWIDTH 0 0
DWIDTH 11 0
BBX 8 13 2 -1
BITMAP
f800
3e00
0e00
0700
0300
0300
7f00
0300
0300
0700
0e00
3e00
f800
ENDCHAR
STARTCHAR ampersand
ENCODING -1 38
SWIDTH 0 0
DWIDTH 17 0
BBX 15 17 1 -1
BITMAP
0780
0cc0
1840
1840
18c0
1d80
0f3e
1e1c
3e18
6730
c3a0
c1e0
c0c0
c1e0
e372
7e3e
3c1c
ENDCHAR
STARTCHAR percent
ENCODING -1 37
SWIDTH 0 0
DWIDTH 20 0
BBX 18 17 1 -1
BITMAP
1f060000
39fe0000
710c0000
63180000
e3180000
c6300000
ce600000
dc600000
78c78000
018ec000
019cc000
0338c000
0630c000
06318000
0c338000
18370000
181e0000
ENDCHAR
STARTCHAR existential
ENCODING -1 36
SWIDTH 0 0
DWIDTH 13 0
BBX 11 17 1 -1
BITMAP
ffe0
ffe0
0060
0060
0060
0060
0060
ffe0
ffe0
0060
0060
0060
0060
0060
0060
ffe0
ffe0
ENDCHAR
STARTCHAR numbersign
ENCODING -1 35
SWIDTH 0 0
DWIDTH 13 0
BBX 11 17 1 -1
BITMAP
0880
0880
0880
0880
0880
7fe0
7fe0
1100
1100
1100
ffc0
ffc0
2200
2200
2200
2200
2200
ENDCHAR
STARTCHAR universal
ENCODING -1 34
SWIDTH 0 0
DWIDTH 17 0
BBX 15 17 1 -1
BITMAP
c006
c006
600c
600c
3ff8
3ff8
3018
1830
1830
0c60
0c60
0c60
06c0
06c0
0380
0380
0380
ENDCHAR
STARTCHAR exclam
ENCODING -1 33
SWIDTH 0 0
DWIDTH 7 0
BBX 3 17 2 -1
BITMAP
4000
e000
e000
e000
e000
e000
e000
e000
4000
4000
4000
4000
0000
0000
0000
c000
c000
ENDCHAR
STARTCHAR space
ENCODING -1 32
SWIDTH 0 0
DWIDTH 6 0
BBX 0 0 0 -1
BITMAP
ENDCHAR
ENDFONT
